<svg id="visual" viewBox="0 0 960 540" width="960" height="540" xmlns="http://www.w3.org/2000/svg" xmlns:xlink="http://www.w3.org/1999/xlink" version="1.1"><rect x="0" y="0" width="960" height="540" fill="#0e0e17"></rect><path d="M0 483L22.8 473.8C45.7 464.7 91.3 446.3 137 437.5C182.7 428.7 228.3 429.3 274 436.3C319.7 443.3 365.3 456.7 411.2 462.5C457 468.3 503 466.7 548.8 460.3C594.7 454 640.3 443 686 436.2C731.7 429.3 777.3 426.7 823 431C868.7 435.3 914.3 446.7 937.2 452.3L960 458L960 541L937.2 541C914.3 541 868.7 541 823 541C777.3 541 731.7 541 686 541C640.3 541 594.7 541 548.8 541C503 541 457 541 411.2 541C365.3 541 319.7 541 274 541C228.3 541 182.7 541 137 541C91.3 541 45.7 541 22.8 541L0 541Z" fill="#2b2b32" stroke-linecap="round" stroke-linejoin="miter"></path></svg>